<svg xmlns="http://www.w3.org/2000/svg" width="47" height="49" viewBox="0 0 47 49">
  <path fill="#66BF92" fill-rule="evenodd" d="M22.9242704,24 C17.4196071,24 12.9571963,18.6274173 12.9571963,12 C12.9571963,5.37258267 17.4196071,0 22.9242704,0 C28.4289337,0 32.8913445,5.37258267 32.8913445,12 C32.8913445,18.6274173 28.4289337,24 22.9242704,24 Z M22.9242704,22 C27.3280011,22 30.8979297,17.5228478 30.8979297,12 C30.8979297,6.47715223 27.3280011,2 22.9242704,2 C18.5205398,2 14.9506112,6.47715223 14.9506112,12 C14.9506112,17.5228478 18.5205398,22 22.9242704,22 Z M37.9594502,29 L37.9594502,37.9259968 L47,37.9259968 L47,40 L37.9594502,40 L37.9594502,49 L35.8826215,49 L35.8826215,40 L27.0658518,40 L27.0658518,37.9259968 L35.8826215,37.9259968 L35.8826215,29 L37.9594502,29 Z M32.9378588,27.4528129 C29.912392,26.5220976 26.5147258,26 22.9242704,26 C10.2635448,26 0,32.4918707 0,40.5 L1.76835407,40.5258208 C1.76835407,40.5258208 1.76835409,38.352891 3.54035232,35.6531894 C5.3123507,32.9534879 9.44701304,30.1879406 13.9539037,29.0685524 C18.4607945,27.9491644 19.0753234,27.7516253 22.9242704,27.7516251 C26.7732175,27.7516248 31.498547,28.805167 31.498547,28.805167 L32.9378599,29.0685525 L32.9378588,27.4528129 Z"/>
</svg>
