<svg xmlns="http://www.w3.org/2000/svg" width="48" height="48" viewBox="0 0 48 48">
  <path fill="#66BF92" fill-rule="evenodd" d="M12.0808252,16.4067161 C12.3329094,16.4067161 12.5816024,16.2952819 12.7489049,16.0836694 L22.3394094,3.89907138 L25.9861523,3.89907138 L35.2409213,16.0724135 C35.4070934,16.2907795 35.6614385,16.4067161 35.9169139,16.4067161 C36.0955207,16.4067161 36.2752579,16.3504362 36.4289953,16.2344996 C36.8020348,15.9531001 36.8755122,15.4251946 36.5929066,15.0526217 L27.9372616,3.6671982 C28.5601243,3.34077479 28.9896849,2.69693275 28.9896849,1.94953569 C28.9896849,0.874589626 28.1113466,0 27.0317931,0 L20.965946,0 C19.8863925,0 19.0080543,0.874589626 19.0080543,1.94953569 C19.0080543,2.78472939 19.5416137,3.49385611 20.2854317,3.77075321 L11.4150064,15.0413657 C11.1256182,15.4083107 11.1900523,15.9395929 11.55857,16.2266204 C11.7145683,16.348185 11.8976968,16.4067161 12.0808252,16.4067161 L12.0808252,16.4067161 Z M20.965946,1.68839696 L27.0317931,1.68839696 C27.1787481,1.68839696 27.2940512,1.80320795 27.2940512,1.94953569 C27.2940512,2.09361223 27.1764872,2.21067442 27.0317931,2.21067442 L20.965946,2.21067442 C20.8212519,2.21067442 20.703688,2.09361223 20.703688,1.94953569 C20.703688,1.80320795 20.8189911,1.68839696 20.965946,1.68839696 L20.965946,1.68839696 Z M47.1521831,17.9656693 L0.847816872,17.9656693 C0.379821958,17.9656693 0,18.3427446 0,18.8098677 C0,19.2758653 0.379821958,19.6540662 0.847816872,19.6540662 L3.62639537,19.6540662 L5.17055249,47.2030766 C5.19542179,47.6510646 5.56733079,48 6.01723894,48 L41.9838915,48 C42.4349301,48 42.8057086,47.6510646 42.8305779,47.2030766 L44.3747351,19.6540662 L47.1521831,19.6540662 C47.620178,19.6540662 48,19.2758653 48,18.8098677 C48,18.3427446 47.620178,17.9656693 47.1521831,17.9656693 L47.1521831,17.9656693 Z M14.3563657,46.311603 L6.81870849,46.311603 L6.37332203,38.3682581 L14.3563657,38.3682581 L14.3563657,46.311603 L14.3563657,46.311603 Z M14.3563657,36.6798612 L6.27949696,36.6798612 L5.84880599,29.0100366 L14.3563657,29.0100366 L14.3563657,36.6798612 L14.3563657,36.6798612 Z M14.3563657,27.3216396 L5.7538505,27.3216396 L5.32428995,19.6540662 L14.3563657,19.6540662 L14.3563657,27.3216396 L14.3563657,27.3216396 Z M16.0519994,38.3682581 L23.146531,38.3682581 L23.146531,46.311603 L16.0519994,46.311603 L16.0519994,38.3682581 Z M16.0519994,29.0100366 L23.146531,29.0100366 L23.146531,36.6798612 L16.0519994,36.6798612 L16.0519994,29.0100366 Z M16.0519994,19.6540662 L23.146531,19.6540662 L23.146531,27.3216396 L16.0519994,27.3216396 L16.0519994,19.6540662 Z M24.8421648,38.3682581 L31.949131,38.3682581 L31.949131,46.311603 L24.8421648,46.311603 L24.8421648,38.3682581 Z M24.8421648,29.0100366 L31.949131,29.0100366 L31.949131,36.6798612 L24.8421648,36.6798612 L24.8421648,29.0100366 Z M24.8421648,19.6540662 L31.949131,19.6540662 L31.949131,27.3216396 L24.8421648,27.3216396 L24.8421648,19.6540662 Z M41.1812915,46.311603 L33.6447647,46.311603 L33.6447647,38.3682581 L41.6278084,38.3682581 L41.1812915,46.311603 L41.1812915,46.311603 Z M41.7227639,36.6798612 L33.6447647,36.6798612 L33.6447647,29.0100366 L42.1523244,29.0100366 L41.7227639,36.6798612 L41.7227639,36.6798612 Z M42.2472799,27.3216396 L33.6447647,27.3216396 L33.6447647,19.6540662 L42.67571,19.6540662 L42.2472799,27.3216396 L42.2472799,27.3216396 Z"/>
</svg>
