<svg xmlns="http://www.w3.org/2000/svg" width="50" height="45" viewBox="0 0 50 45">
  <path fill="#66BF92" d="M35.8483795,0 C37.8630588,0 39.7786363,0.429177424 41.5407291,1.27647457 C44.9598576,2.92311738 47.45385,5.79788856 48.5603274,9.36740441 C49.8698735,13.6057347 49.1582276,18.4121134 46.5277883,23.2527454 C45.4281187,25.2797878 44.0527109,27.1964787 42.3093173,29.156022 C39.2008851,32.6498444 36.1317969,35.2905136 26.6515756,42.9172158 L24.6005324,44.5705198 L24.2240229,44.2673013 L22.5281108,42.9015136 C13.0373197,35.2612311 9.99970486,32.6475364 6.89737067,29.1627962 C5.15077623,27.2009097 3.7735893,25.2823242 2.67325767,23.2533459 C0.0411831238,18.4147499 -0.669822847,13.6079003 0.640554707,9.36687984 C1.74685207,5.79794542 4.24083831,2.92306701 7.65729455,1.27914604 C9.42082479,0.429716726 11.336384,0 13.3523402,0 C17.8012086,0 22.0466112,2.15344189 24.600394,5.62297424 C27.1538726,2.15470977 31.4028518,0 35.8483795,0 Z"/>
</svg>
