<svg xmlns="http://www.w3.org/2000/svg" width="50" height="45" viewBox="0 0 50 45">
  <path fill="#66BF92" d="M26.2988611,42.3825865 C35.7197236,34.8036372 38.7668923,32.1818277 41.8127105,28.7583824 C43.4973769,26.8648475 44.8193384,25.0226362 45.873133,23.0801564 C48.3580543,18.5073119 49.0210893,14.0292456 47.8138957,10.1221772 C46.80668,6.87288216 44.5401402,4.26029068 41.4203042,2.75778615 C39.8221835,1.98933466 38.084439,1.6 36.2483055,1.6 C31.9031036,1.6 27.7571557,3.85568019 25.5070959,7.40641527 L25.0002859,8.20619327 L24.4934758,7.40641527 C22.2423811,3.8540471 18.1008539,1.6 13.7522662,1.6 C11.9150999,1.6 10.1776335,1.98976524 8.57774592,2.76037371 C5.46028962,4.26042276 3.19385674,6.8729949 2.18683841,10.1216526 C0.978811825,14.0314162 1.64121512,18.509681 4.12768186,23.0806043 C5.18221665,25.0251336 6.50584078,26.8690997 8.19357617,28.764872 C11.2334404,32.1794419 14.2495425,34.7746261 23.6806198,42.3668378 L25.0001134,43.4294802 L26.2988611,42.3825865 Z M36.2483055,0.4 C38.2629848,0.4 40.1785623,0.829177424 41.9406551,1.67647457 C45.3597836,3.32311738 47.853776,6.19788856 48.9602534,9.76740441 C50.2697994,14.0057347 49.5581536,18.8121134 46.9277143,23.6527454 C45.8280447,25.6797878 44.4526369,27.5964787 42.7092433,29.556022 C39.6008111,33.0498444 36.5317229,35.6905136 27.0515016,43.3172158 L25.0004584,44.9705198 L24.6239489,44.6673013 L22.9280368,43.3015136 C13.4372457,35.6612311 10.3996309,33.0475364 7.29729666,29.5627962 C5.55070222,27.6009097 4.1735153,25.6823242 3.07318366,23.6533459 C0.441109121,18.8147499 -0.26989685,14.0079003 1.0404807,9.76687984 C2.14677807,6.19794542 4.6407643,3.32306701 8.05722055,1.67914604 C9.82075079,0.829716726 11.73631,0.4 13.7522662,0.4 C18.2011346,0.4 22.4465372,2.55344189 25.00032,6.02297424 C27.5537986,2.55470977 31.8027778,0.4 36.2483055,0.4 Z"/>
</svg>
