<svg xmlns="http://www.w3.org/2000/svg" width="48" height="48" viewBox="0 0 48 48">
  <path fill="#66BF92" d="M24,0 C37.233694,0 48,10.7661245 48,23.9995955 C48,37.233471 37.233694,48 24,48 C10.766306,48 0,37.233471 0,23.9995955 C0,10.7661245 10.766306,0 24,0 Z M24.0675498,38.2644982 C21.0096066,38.2644982 18.5223986,36.1357041 18.5223986,33.5195079 L17.3089291,33.5195079 C17.3089291,36.8051235 20.3409849,39.4779472 24.0675498,39.4779472 C27.7937102,39.4779472 30.8253615,36.8051235 30.8253615,33.5195079 L29.611892,33.5195079 C29.611892,36.1357041 27.124684,38.2644982 24.0675498,38.2644982 Z M12.5412074,20.4356956 C9.69926181,20.4356956 7.3871979,23.0413752 7.3871979,26.2440718 L8.60066741,26.2440718 C8.60066741,23.7103902 10.368288,21.6491447 12.5412074,21.6491447 C14.7141268,21.6491447 16.4817474,23.7107946 16.4817474,26.2440718 L17.6952169,26.2440718 C17.6952169,23.0417797 15.383153,20.4356956 12.5412074,20.4356956 Z M35.7544747,20.4356956 C32.9125291,20.4356956 30.6004652,23.0413752 30.6004652,26.2440718 L31.8139347,26.2440718 C31.8139347,23.7103902 33.5815553,21.6491447 35.7544747,21.6491447 C37.9273941,21.6491447 39.6950147,23.7107946 39.6950147,26.2440718 L40.9084842,26.2440718 C40.9084842,23.0417797 38.5964203,20.4356956 35.7544747,20.4356956 Z"/>
</svg>
