<svg xmlns="http://www.w3.org/2000/svg" width="22" height="22" viewBox="0 0 22 22">
  <path fill="#66BF92" fill-rule="evenodd" d="M19.8,0 L2.2,0 C0.99,0 0,0.99 0,2.2 L0,19.8 C0,21.01 0.99,22 2.2,22 L19.8,22 C21.01,22 22,21.01 22,19.8 L22,2.2 C22,0.99 21.01,0 19.8,0 L19.8,0 Z M11,6.6 C13.42,6.6 15.4,8.58 15.4,11 C15.4,13.42 13.42,15.4 11,15.4 C8.58,15.4 6.6,13.42 6.6,11 C6.6,8.58 8.58,6.6 11,6.6 L11,6.6 Z M2.75,19.8 C2.42,19.8 2.2,19.58 2.2,19.25 L2.2,9.9 L4.51,9.9 C4.4,10.23 4.4,10.67 4.4,11 C4.4,14.63 7.37,17.6 11,17.6 C14.63,17.6 17.6,14.63 17.6,11 C17.6,10.67 17.6,10.23 17.49,9.9 L19.8,9.9 L19.8,19.25 C19.8,19.58 19.58,19.8 19.25,19.8 L2.75,19.8 L2.75,19.8 Z M19.8,4.95 C19.8,5.28 19.58,5.5 19.25,5.5 L17.05,5.5 C16.72,5.5 16.5,5.28 16.5,4.95 L16.5,2.75 C16.5,2.42 16.72,2.2 17.05,2.2 L19.25,2.2 C19.58,2.2 19.8,2.42 19.8,2.75 L19.8,4.95 L19.8,4.95 Z"/>
</svg>
