<svg xmlns="http://www.w3.org/2000/svg" width="50" height="40" viewBox="0 0 50 40">
  <path fill="#66BF92" fill-rule="evenodd" d="M34.4819568,24.0677432 C34.6471834,24.0235573 34.8208407,24 35,24 C35.3149275,24 35.6128542,24.0727892 35.877874,24.2024616 L44.1091097,6.55051961 L45.9217253,7.39575613 L36.9997797,25.9700095 C36.9999264,25.9799888 37,25.9899858 37,26 C37,27.1045696 36.1045696,28 35,28 C33.8954304,28 33,27.1045696 33,26 C33,25.8208407 33.0235573,25.6471834 33.0677432,25.4819568 L25.5180432,17.9322568 C25.3528166,17.9764427 25.1791593,18 25,18 C24.963245,18 24.9267217,17.9990085 24.8904551,17.9970509 L16.9076905,29.3976203 C16.96766,29.5877197 17,29.7900832 17,30 C17,31.1045696 16.1045696,32 15,32 C13.8954304,32 13,31.1045696 13,30 C13,29.9333718 13.0032581,29.8675046 13.0096236,29.802549 L5.31940758,17.9606548 L6.99674872,16.8713767 L14.3044578,28.1242618 C14.5210834,28.0439043 14.7554145,28 15,28 C15.1421628,28 15.2808613,28.0148326 15.4146323,28.0430347 L23.2149727,16.9029941 C23.0774803,16.6317381 23,16.3249173 23,16 C23,14.8954304 23.8954304,14 25,14 C26.1045696,14 27,14.8954304 27,16 C27,16.1791593 26.9764427,16.3528166 26.9322568,16.5180432 L34.4819568,24.0677432 Z M0,0 L50,0 L50,40 L0,40 L0,0 Z M2,2 L2,38 L48,38 L48,2 L2,2 Z M35,27 C35.5522848,27 36,26.5522848 36,26 C36,25.4477152 35.5522848,25 35,25 C34.4477152,25 34,25.4477152 34,26 C34,26.5522848 34.4477152,27 35,27 Z M25,17 C25.5522848,17 26,16.5522848 26,16 C26,15.4477152 25.5522848,15 25,15 C24.4477152,15 24,15.4477152 24,16 C24,16.5522848 24.4477152,17 25,17 Z M15,31 C15.5522848,31 16,30.5522848 16,30 C16,29.4477152 15.5522848,29 15,29 C14.4477152,29 14,29.4477152 14,30 C14,30.5522848 14.4477152,31 15,31 Z"/>
</svg>
