<svg xmlns="http://www.w3.org/2000/svg" width="25" height="25" viewBox="0 0 25 25">
  <path fill="#66BF92" fill-rule="evenodd" d="M5.25667101,24.4239052 L0.135534475,24.4239052 L0.135534475,7.4106721 L5.25667101,7.4106721 L5.25667101,24.4239052 Z M2.69610274,0 C4.34699544,0 5.39143776,1.1481323 5.42512944,2.67897536 C5.42512944,4.14023465 4.34699544,5.32315883 2.66241105,5.32315883 C1.04521004,5.32315883 -0.0329239635,4.14023465 0.000767724161,2.67897536 C-0.0329239635,1.1481323 1.04521004,0 2.69610274,0 Z M9.36705691,24.4239052 L9.36705691,12.8382066 C9.36705691,10.7159014 9.29967353,8.90672327 9.23229015,7.4106721 L13.6795929,7.4106721 L13.9154347,9.74172858 L14.0165098,9.74172858 C14.6903436,8.66318006 16.3749279,7.02796133 19.1039547,7.02796133 C22.4731234,7.02796133 25,9.32422593 25,14.3342578 L25,24.4239052 L19.8788635,24.4239052 L19.8788635,14.9953036 C19.8788635,12.8034147 19.1376463,11.3073635 17.2846035,11.3073635 C15.8695526,11.3073635 15.0272604,12.3163283 14.6903436,13.2905011 C14.5555768,13.6036281 14.4881934,14.1255064 14.4881934,14.6125929 L14.4881934,24.4239052 L9.36705691,24.4239052 Z"/>
</svg>
