<svg xmlns="http://www.w3.org/2000/svg" width="48" height="42" viewBox="0 0 48 42">
  <path fill="#66BF92" fill-rule="evenodd" d="M15.4720392,15.6141178 L15.4720392,2.25563115 L2,6.45051035 L2,39.270137 L15.4720392,34.9126441 L15.4720392,16.6782955 L13.2614711,17.4828765 L12.919451,16.5431839 L15.4720392,15.6141178 Z M42.0351735,11.9017148 L41.5,17 L41.3317345,17 L41.0371757,11.927238 C40.4352422,11.7321822 40,11.1669193 40,10.5 C40,9.67157283 40.6715728,9 41.5,9 C42.3284272,9 43,9.67157283 43,10.5 C43,11.1398892 42.5993233,11.6861954 42.0351735,11.9017148 Z M31.9857864,5.03998661 L48,0 L48,36.8544617 L31.9857864,42 L16.0985985,36.8544617 L0,42 L0,5.03998661 L16.0985985,0 L31.9857864,5.03998661 Z M16.5890801,1.99279807 L16.5890801,34.9783518 L31.5048583,39.9064715 L31.5048583,6.98662684 L16.5890801,1.99279807 Z M32.621899,6.92091879 L32.621899,39.9064735 L46,35.4104408 L46,2.70721659 L32.621899,6.92091879 Z M41.9803791,18.9445924 L39.6489413,20.8325536 L39.0196209,20.0554076 L41.3510587,18.1674464 L41.9803791,18.9445924 Z M38.6645243,22.4304752 L37.2100954,25.0543344 L36.3354757,24.5695248 L37.7899046,21.9456656 L38.6645243,22.4304752 Z M35.8020403,26.6029542 L33.9965952,28.9988608 L33.1979597,28.3970458 L35.0034048,26.0011392 L35.8020403,26.6029542 Z M28.6489413,27.1674464 L30.9803791,29.0554076 L30.3510587,29.8325536 L28.0196209,27.9445924 L28.6489413,27.1674464 Z M26.1291452,22.9629682 L27.7189029,25.5071125 L26.8708548,26.0370318 L25.2810971,23.4928875 L26.1291452,22.9629682 Z M22.8176823,19.0736611 L24.9016575,21.2316805 L24.1823177,21.9263389 L22.0983425,19.7683195 L22.8176823,19.0736611 Z M18.4304752,16.3354757 L21.0543344,17.7899046 L20.5695248,18.6645243 L17.9456656,17.2100954 L18.4304752,16.3354757 Z M7.93262336,18.7081597 L10.6290055,17.3930463 L11.0673766,18.2918403 L8.3709945,19.6069537 L7.93262336,18.7081597 Z M4.09834254,22.2316805 L6.18231766,20.0736611 L6.90165746,20.7683195 L4.81768234,22.9263389 L4.09834254,22.2316805 Z"/>
</svg>
