<svg xmlns="http://www.w3.org/2000/svg" width="50" height="50" viewBox="0 0 50 50">
  <path fill="#66BF92" fill-rule="evenodd" d="M23.1481481,46.2962963 C10.0917066,46.2962963 0,35.932518 0,23.1481481 C0,10.3637783 10.3637783,0 23.1481481,0 C35.932518,0 46.2962963,10.3637783 46.2962963,23.1481481 L23.1481481,23.1481481 L23.1481481,46.2962963 Z M21.3172347,44.3683766 C21.3172344,36.828728 21.3172347,28.8713933 21.3172347,21.3317447 L44.3677796,21.3283415 C44.3677792,12.2899797 34.971714,1.85185008 23.1481481,1.85185185 C11.3865279,1.85185363 1.85185185,11.3865279 1.85185185,23.1481481 C1.85185185,34.9097684 11.8200832,44.3683766 21.3172347,44.3683766 Z M26.8518518,50 C26.8518519,50 26.8518519,26.8518518 26.8518519,26.8518519 C26.8518519,26.8518518 50,26.8518518 50,26.8518519 C50,39.6362217 39.6362217,50 26.8518518,50 Z M48.0683184,28.7085356 C41.6132431,28.7085368 28.7030926,28.7085357 28.7030926,28.7085357 C28.7030926,28.7085356 28.7030924,48.0326775 28.7030925,48.0326775 C38.0041077,48.0326775 48.0683184,38.3518952 48.0683184,28.7085356 Z"/>
</svg>
