<svg xmlns="http://www.w3.org/2000/svg" width="45" height="32" viewBox="0 0 45 32">
  <path fill="#66BF92" fill-rule="evenodd" d="M6.81566628e-08,29.347826 C-8.51958329e-08,29.347826 1.06494769e-08,30.3260869 1.06494769e-08,30.3260869 C4.24098187e-08,30.8663655 0.433625714,31.3043478 0.975113335,31.3043478 L40.1118433,31.3043478 C40.6503834,31.3043478 41.0869565,30.8701322 41.0869565,30.3260869 C41.0869565,30.3260869 41.0869566,29.347826 41.0869565,29.347826 C41.0869565,29.347826 2.21509152e-07,29.347826 6.81566628e-08,29.347826 Z M34.2391304,9.47172206 C35.2906841,7.89017211 37.0888329,6.8478261 39.1304348,6.8478261 C42.3721063,6.8478261 45,9.47571979 45,12.7173913 C45,15.9590628 42.3721063,18.5869565 39.1304348,18.5869565 C37.0888329,18.5869565 35.2906841,17.5446105 34.2391304,15.9630606 L34.2391304,19.3949713 C34.2391304,23.8103696 30.6590502,27.3913043 26.2427975,27.3913043 L14.8441592,27.3913043 C10.4287609,27.3913043 6.84782616,23.8112241 6.84782615,19.3949713 C6.84782615,19.3949713 6.84782611,1.79293312e-08 6.84782617,1.79293312e-08 C6.84782623,1.79293312e-08 34.2391304,-2.2411646e-08 34.2391304,1.79293312e-08 L34.2391304,9.47172206 Z M8.80854126,7.82608697 C8.80854126,7.82608697 8.80854126,19.4364173 8.80854126,19.4364173 C8.80854126,22.749223 11.4895308,25.4347826 14.8175882,25.4347826 L26.3708875,25.4347826 C29.6895925,25.4347826 32.3799346,22.7412328 32.3799348,19.4364173 L32.3799355,7.82608697 C32.3799355,7.82608696 8.80854126,7.82608697 8.80854126,7.82608697 Z M8.80434788,1.95652174 L8.80434788,5.86956521 L32.2826087,5.86956521 L32.2826087,1.95652174 L8.80434788,1.95652174 Z M39.1304348,16.6304348 C41.2915491,16.6304348 43.0434783,14.8785056 43.0434783,12.7173913 C43.0434783,10.556277 41.2915491,8.80434783 39.1304348,8.80434783 C36.9693204,8.80434783 35.2173913,10.556277 35.2173913,12.7173913 C35.2173913,14.8785056 36.9693204,16.6304348 39.1304348,16.6304348 Z"/>
</svg>
