<svg xmlns="http://www.w3.org/2000/svg" width="26" height="21" viewBox="0 0 26 21">
  <path fill="#66BF92" fill-rule="evenodd" d="M22.9363732,3.3206638 C24.0376132,2.66455575 24.8834241,1.62563388 25.2817514,0.38760845 C24.2509448,0.995214978 23.1094861,1.43637194 21.8943947,1.67408493 C20.9214279,0.64374294 19.5350517,-5.32907052e-15 18.0008008,-5.32907052e-15 C15.0549354,-5.32907052e-15 12.6666471,2.37354659 12.6666471,5.3013026 C12.6666471,5.71682088 12.7138228,6.12143767 12.8047719,6.50950035 C8.3715774,6.28834146 4.44106554,4.17779327 1.81019568,0.970282871 C1.35103252,1.75327213 1.08793538,2.66395011 1.08793538,3.63554519 C1.08793538,5.47486842 2.02962104,7.09757504 3.46093855,8.04827561 C2.58653792,8.02071908 1.76403562,7.78224903 1.04492374,7.38515225 C1.04441593,7.40725805 1.04441593,7.42946478 1.04441593,7.45182292 C1.04441593,10.0204355 2.88315062,12.1630825 5.32328648,12.6502175 C4.8757522,12.7712947 4.40445234,12.8362998 3.91796891,12.8362998 C3.5742313,12.8362998 3.24009133,12.8029897 2.91433025,12.7410128 C3.59317267,14.8471196 5.56307507,16.3800908 7.89728145,16.4227379 C6.07169908,17.8447764 3.77166841,18.6922156 1.27247408,18.6922156 C0.841900699,18.6922156 0.417319497,18.6671826 0,18.6179745 C2.36061258,20.1223293 5.16449382,21 8.17683169,21 C17.9883086,21 23.3536927,12.9216948 23.3536927,5.91597491 C23.3536927,5.68613521 23.3484114,5.45750679 23.3382044,5.23008964 C24.3805383,4.48268163 25.2848998,3.5489894 26,2.48589248 C25.0432831,2.9075176 24.0153711,3.19252085 22.9363732,3.3206638 Z"/>
</svg>
