<svg xmlns="http://www.w3.org/2000/svg" width="48" height="41" viewBox="0 0 48 41">
  <path fill="#66BF92" fill-rule="evenodd" d="M47.9596246,11.3310181 C47.9495308,11.2673186 47.9596246,11.2023701 47.9369135,11.1411686 L43.806009,0.597026747 C43.6634335,0.237311887 43.3139342,0 42.9240596,0 L5.07720211,0 C4.68480404,0 4.33656652,0.237311887 4.19399101,0.597026747 L0.0643482375,11.1411686 C0.0403753647,11.2023701 0.0504692059,11.2673186 0.0403753647,11.3310181 C0.0252346029,11.3947176 0,11.4559191 0,11.5233656 L0,40.0632426 C0,40.5803327 0.42394133,41 0.946297611,41 L47.0537024,41 C47.5760587,41 48,40.5803327 48,40.0632426 L48,11.5233656 C48,11.4559191 47.9735037,11.3947176 47.9596246,11.3310181 L47.9596246,11.3310181 Z M26.8609731,1.8735149 L29.2418579,11.4734052 L29.2418579,22.3048194 L24.4270957,19.9192104 C24.1608706,19.7880643 23.8479615,19.7880643 23.5779513,19.9192104 L18.7606656,22.3048194 L18.7606656,11.4171998 L21.1365034,1.8735149 L26.8609731,1.8735149 L26.8609731,1.8735149 Z M46.1074048,39.1264851 L1.89133349,39.1264851 L1.89133349,12.4601231 L14.9414084,12.4601231 C15.4637647,12.4601231 15.887706,12.0404557 15.887706,11.5233656 C15.887706,11.5171206 15.8826591,11.5096265 15.8826591,11.5021325 C15.8826591,11.4946384 15.887706,11.4871443 15.887706,11.4796503 C15.887706,10.9625602 15.4637647,10.5428928 14.9414084,10.5428928 L2.32915385,10.5428928 L5.72446968,1.8735149 L19.1846069,1.8735149 L16.8958284,11.0799671 C16.8756407,11.1524097 16.8680703,11.2285993 16.8680703,11.3047889 L16.8680703,23.8211174 C16.8680703,24.14586 17.0384039,24.4468714 17.3172463,24.6179857 C17.5960886,24.7891001 17.9418027,24.8028392 18.2383093,24.6592031 L24.0031543,21.8052154 L29.7642142,24.6592031 C29.8979576,24.7254006 30.0430565,24.7578749 30.1881555,24.7578749 C30.3610125,24.7578749 30.5326078,24.7116615 30.6852772,24.6179857 C30.9628578,24.4468714 31.1344531,24.14586 31.1344531,23.8211174 L31.1344531,11.3597453 C31.1344531,11.2848047 31.125621,11.2098641 31.1079568,11.1374216 L28.8103462,1.8735149 L42.2755303,1.8735149 L45.6721079,10.5428928 L33.0611151,10.5428928 C32.5387588,10.5428928 32.1160792,10.9625602 32.1160792,11.4796503 C32.1160792,11.4871443 32.1186026,11.4946384 32.1198644,11.5021325 C32.1186026,11.5096265 32.1160792,11.5171206 32.1160792,11.5233656 C32.1160792,12.0404557 32.5387588,12.4601231 33.0611151,12.4601231 L46.1074048,12.4601231 L46.1074048,39.1264851 L46.1074048,39.1264851 Z"/>
</svg>
