<svg xmlns="http://www.w3.org/2000/svg" width="47" height="49"><path fill="#66BF92" fill-rule="evenodd" d="M22.924 24c-5.504 0-9.967-5.373-9.967-12S17.42 0 22.924 0c5.505 0 9.967 5.373 9.967 12s-4.462 12-9.967 12zm0-2c4.404 0 7.974-4.477 7.974-10s-3.57-10-7.974-10c-4.403 0-7.973 4.477-7.973 10s3.57 10 7.973 10zm15.035 7v8.926H47V40h-9.04v9h-2.077v-9h-8.817v-2.074h8.817V29h2.076zm-5.021-1.547C29.912 26.523 26.515 26 22.924 26 10.264 26 0 32.492 0 40.5l1.768.026s0-2.173 1.772-4.873 5.907-5.465 10.414-6.584c4.507-1.12 5.121-1.317 8.97-1.317 3.85 0 8.575 1.053 8.575 1.053l1.439.264v-1.616z"/></svg>