<svg xmlns="http://www.w3.org/2000/svg" width="48" height="48"><path fill="#66BF92" fill-rule="evenodd" d="M12.08 16.407a.85.85 0 0 0 .669-.323l9.59-12.185h3.647l9.255 12.173a.85.85 0 0 0 1.188.162.841.841 0 0 0 .164-1.181L27.937 3.667A1.942 1.942 0 0 0 28.99 1.95C28.99.875 28.11 0 27.032 0h-6.066c-1.08 0-1.958.875-1.958 1.95 0 .835.534 1.544 1.277 1.82l-8.87 11.271a.845.845 0 1 0 .666 1.365zm8.886-14.719h6.066a.262.262 0 0 1 0 .522h-6.066a.262.262 0 0 1-.262-.26.26.26 0 0 1 .262-.262zm26.186 16.278H.848A.846.846 0 0 0 0 18.81c0 .466.38.844.848.844h2.778l1.545 27.55a.846.846 0 0 0 .846.796h35.967a.845.845 0 0 0 .847-.797l1.544-27.549h2.777A.846.846 0 0 0 48 18.81a.846.846 0 0 0-.848-.844zM14.356 46.312H6.82l-.446-7.944h7.983v7.944zm0-9.632H6.28l-.43-7.67h8.507v7.67zm0-9.358H5.754l-.43-7.668h9.032v7.668zm1.696 11.046h7.095v7.944h-7.095v-7.944zm0-9.358h7.095v7.67h-7.095v-7.67zm0-9.356h7.095v7.668h-7.095v-7.668zm8.79 18.714h7.107v7.944h-7.107v-7.944zm0-9.358h7.107v7.67h-7.107v-7.67zm0-9.356h7.107v7.668h-7.107v-7.668zm16.34 26.658h-7.537v-7.944h7.983l-.447 7.944zm.54-9.632h-8.077v-7.67h8.507l-.43 7.67zm.525-9.358h-8.602v-7.668h9.03l-.428 7.668z"/></svg>