<svg xmlns="http://www.w3.org/2000/svg" width="50" height="45"><path fill="#66BF92" d="M35.848 0c2.015 0 3.93.43 5.693 1.276 3.419 1.647 5.913 4.522 7.02 8.091 1.309 4.239.597 9.045-2.033 13.886-1.1 2.027-2.475 3.943-4.219 5.903-3.108 3.494-6.177 6.135-15.657 13.761L24.6 44.571l-.377-.304-1.696-1.365c-9.49-7.64-12.528-10.254-15.63-13.74-1.747-1.961-3.124-3.88-4.225-5.909C.041 18.415-.67 13.608.641 9.367c1.106-3.57 3.6-6.444 7.016-8.088A13.01 13.01 0 0 1 13.352 0c4.45 0 8.695 2.153 11.248 5.623C27.154 2.155 31.403 0 35.848 0z"/></svg>