<svg xmlns="http://www.w3.org/2000/svg" width="50" height="45"><path fill="#66BF92" d="M26.299 42.383c9.42-7.58 12.468-10.201 15.514-13.625 1.684-1.893 3.006-3.735 4.06-5.678 2.485-4.573 3.148-9.05 1.94-12.958-1.006-3.25-3.273-5.862-6.393-7.364A11.826 11.826 0 0 0 36.248 1.6c-4.345 0-8.49 2.256-10.74 5.806l-.508.8-.507-.8C22.243 3.854 18.101 1.6 13.753 1.6c-1.838 0-3.575.39-5.175 1.16-3.118 1.5-5.384 4.113-6.391 7.362-1.208 3.91-.546 8.388 1.94 12.959 1.055 1.944 2.379 3.788 4.067 5.684 3.04 3.414 6.056 6.01 15.487 13.602L25 43.429l1.298-1.046zM36.249.4c2.014 0 3.93.43 5.692 1.276 3.419 1.647 5.913 4.522 7.02 8.091 1.309 4.239.597 9.045-2.033 13.886-1.1 2.027-2.475 3.943-4.219 5.903-3.108 3.494-6.177 6.135-15.657 13.761L25 44.971l-.376-.304-1.696-1.365c-9.49-7.64-12.528-10.254-15.63-13.74-1.747-1.961-3.124-3.88-4.225-5.909C.441 18.815-.27 14.008 1.04 9.767c1.107-3.57 3.6-6.444 7.017-8.088A13.01 13.01 0 0 1 13.752.4C18.202.4 22.447 2.553 25 6.023 27.554 2.555 31.803.4 36.248.4z"/></svg>