<svg xmlns="http://www.w3.org/2000/svg" width="48" height="48"><path fill="#66BF92" d="M24 0C10.766 0 0 10.766 0 24c0 13.233 10.766 24 24 24s24-10.767 24-24C48 10.766 37.234 0 24 0zm0 46.045c-12.156 0-22.045-9.89-22.045-22.045 0-12.156 9.89-22.045 22.045-22.045 12.156 0 22.045 9.89 22.045 22.045 0 12.155-9.89 22.045-22.045 22.045zm.068-7.78c-3.058 0-5.546-2.13-5.546-4.745H17.31c0 3.285 3.032 5.958 6.759 5.958 3.726 0 6.757-2.673 6.757-5.958h-1.213c0 2.616-2.487 4.744-5.544 4.744zM12.54 20.434c-2.842 0-5.154 2.606-5.154 5.81H8.6c0-2.535 1.767-4.596 3.94-4.596s3.94 2.062 3.94 4.595h1.214c0-3.202-2.312-5.808-5.154-5.808zm23.213 0c-2.841 0-5.154 2.606-5.154 5.81h1.214c0-2.535 1.768-4.596 3.94-4.596 2.173 0 3.941 2.062 3.941 4.595h1.213c0-3.202-2.312-5.808-5.154-5.808z"/></svg>