<svg xmlns="http://www.w3.org/2000/svg" width="50" height="40"><path fill="#66BF92" fill-rule="evenodd" d="M34.482 24.068a2.003 2.003 0 0 1 1.396.134l8.231-17.651 1.813.845L37 25.97V26a2 2 0 1 1-3.932-.518l-7.55-7.55a2.003 2.003 0 0 1-.628.065l-7.982 11.4a2 2 0 1 1-3.898.405l-7.69-11.84 1.677-1.09 7.307 11.253a1.996 1.996 0 0 1 1.11-.081l7.801-11.14a2 2 0 1 1 3.717-.385l7.55 7.55zM0 0h50v40H0V0zm2 2v36h46V2H2zm33 25a1 1 0 1 0 0-2 1 1 0 0 0 0 2zM25 17a1 1 0 1 0 0-2 1 1 0 0 0 0 2zM15 31a1 1 0 1 0 0-2 1 1 0 0 0 0 2z"/></svg>