<svg xmlns="http://www.w3.org/2000/svg" width="25" height="25"><path fill="#66BF92" fill-rule="evenodd" d="M5.257 24.424H.136V7.41h5.12v17.013zM2.697 0c1.65 0 2.694 1.148 2.728 2.679 0 1.461-1.078 2.644-2.763 2.644C1.045 5.323-.033 4.14.001 2.68-.033 1.149 1.045 0 2.696 0zm6.67 24.424V12.838c0-2.122-.067-3.931-.135-5.427h4.448l.235 2.33h.102c.673-1.078 2.358-2.713 5.087-2.713 3.37 0 5.896 2.296 5.896 7.306v10.09h-5.121v-9.429c0-2.192-.741-3.688-2.594-3.688-1.415 0-2.258 1.01-2.595 1.984-.134.313-.202.835-.202 1.322v9.81h-5.12z"/></svg>