<svg data-name="Capa 1" xmlns="http://www.w3.org/2000/svg" viewBox="0 0 181.7 55.59"><path d="M51.67 10.23a.7.7 0 0 0-.49-.71.7.7 0 0 0-.79.35l-.69.92a27.38 27.38 0 0 0-5.82-5.62A27.65 27.65 0 0 0 34.2.77a27.8 27.8 0 0 0-6.46-.76 27.71 27.71 0 0 0-4.17.32 27.58 27.58 0 0 0-10.35 3.79 27.58 27.58 0 0 0-8.06 7.51 27.63 27.63 0 0 0-4.39 9.7 27.63 27.63 0 0 0-.45 10.63 27.58 27.58 0 0 0 3.8 10.37 28.08 28.08 0 0 0 15 11.84 26.5 26.5 0 0 0 18.79-.53 20.16 20.16 0 0 0 9.51-7.75 14.47 14.47 0 0 0 2-10.23 14.35 14.35 0 0 0-5.47-8.74 16.64 16.64 0 0 0-3-1.84 13.58 13.58 0 0 0-5.72-8.82 14.35 14.35 0 0 0-5.17-2.24 14.36 14.36 0 0 0-3-.32 14.63 14.63 0 0 0-2.94.3 15.43 15.43 0 0 0-7.6 3.7l-.57-1.07a.72.72 0 0 0-.76-.47.73.73 0 0 0-.62.66c-.08.38-.15.77-.23 1.15q-.63 2.82-1.28 5.64a1.36 1.36 0 0 0 .35 1.35 1.32 1.32 0 0 0 1.29.36l6.85-1.54a.69.69 0 0 0 .63-.6.69.69 0 0 0-.46-.73l-.87-.47a9.52 9.52 0 0 1 4.49-2 8.3 8.3 0 0 1 6.45 1.3 8 8 0 0 1 2 2q-.62-.05-1.26-.07h-1c-5.9 0-11 1.76-13.64 4.8a7.57 7.57 0 0 0-1.95 6.24 8.32 8.32 0 0 0 3.6 5.66 13.91 13.91 0 0 0 10.55 1.72 13.64 13.64 0 0 0 8.77-6 14.27 14.27 0 0 0 .9-1.61 11.85 11.85 0 0 0-5.43-2.69 7.66 7.66 0 0 1-5.45 4.35 8.19 8.19 0 0 1-5.86-.76c-1.36-.9-1.45-2-.57-2.88 1.39-1.41 4.88-2.9 9.88-2.74 6 .2 10.35 3.16 11.17 7.54s-2.28 8.88-7.92 11.27c-9.25 3.92-20.77 0-26.24-8.9a21.53 21.53 0 0 1-2.67-16.49 21.54 21.54 0 0 1 9.74-13.39 21.53 21.53 0 0 1 16.38-2.61 21.51 21.51 0 0 1 12 7.67l-1 .36c-.39.13-.59.36-.59.68a.73.73 0 0 0 .56.71l1.1.4 5.38 2.12a1.36 1.36 0 0 0 1.39-.14 1.32 1.32 0 0 0 .55-1.22l-.48-7" fill="#4de29d"/><path d="M64.51 34.17a14.2 14.2 0 0 0 4.06-.64c.86-.25 1.25-.32 1.25.61v3.1c0 .79-.25 1-.75 1.18a17 17 0 0 1-5.53.78c-7.17 0-10.63-3.1-10.63-9.84s3.46-9.84 10.49-9.84a22 22 0 0 1 5.6.68c.64.21.86.43.86 1.1v3.46c0 .5-.14.68-.89.43a12.39 12.39 0 0 0-4.3-.68c-2.64 0-5.42.46-5.42 4.78 0 4.1 2.53 4.89 5.24 4.89m25.73-1.43c0 1.18.39 1.71 1.14 1.71a12.45 12.45 0 0 0 1.25-.14c.25 0 .36.07.36.39v3.07a.94.94 0 0 1-.57 1 8.74 8.74 0 0 1-3.39.39 4.51 4.51 0 0 1-4.21-2 9.41 9.41 0 0 1-6.42 2c-4.71 0-7.13-2.1-7.13-5.89 0-5.13 4.57-6 11.77-6h1.28v-.11c0-2.25-1.71-2.64-4.78-2.64a37.45 37.45 0 0 0-5.56.43c-.61.01-.93-.13-.93-.63V21.4c0-.89.18-1.25 1.21-1.46a39.33 39.33 0 0 1 6.43-.43c4.14 0 9.59.5 9.59 7.06zm-10.34 1.67c2.64 0 4.42-1 4.42-2.78h-1.28c-4.6 0-5.85.32-5.85 1.57 0 1 1 1.25 2.71 1.25m20.58-2.82v6.1c0 1-.29 1.18-1.21 1.18h-3.5c-1 0-1.21-.21-1.21-1.18V21.12c0-1 .25-1.18 1.21-1.18h3.49c.93 0 1.21.21 1.21 1.18v1.11c1.14-1.93 3.67-2.71 6.56-2.71 2.6 0 4.74.82 5.56 3.42 1-2.46 3.67-3.42 6.92-3.42 3.42 0 6 1.35 6 6.24v12c0 1-.25 1.18-1.18 1.18h-3.52c-.93 0-1.18-.21-1.18-1.18V26.47c0-1.14-.68-2-2.35-2-2.78 0-4.21 2.5-4.28 6.81v6.42c0 1-.29 1.18-1.21 1.18h-3.54c-.93 0-1.18-.21-1.18-1.18V26.47c0-1.14-.61-2-2.28-2-2.92 0-4.31 2.6-4.31 7.13m28.39-16.04v-2.68c0-1 .25-1.18 1.21-1.18h3.5c.93 0 1.21.21 1.21 1.18v9.17c1.11-1.53 3.21-2.53 6.06-2.53 5.1 0 8.24 3 8.24 9.67 0 5.92-2.46 10.2-10.81 10.2a20.16 20.16 0 0 1-9.17-1.93c-.25-.14-.29-.29-.29-.71zm5.82 14.12v4a10.56 10.56 0 0 0 3.39.57c2.78 0 4.63-1.07 4.63-4.89 0-2.28-.43-4.78-3.57-4.78-2.35 0-4.42 1.85-4.46 5.06m20.22-18.15a3.28 3.28 0 0 1 3.32 3.39 3.57 3.57 0 0 1-3.75 3.57 3.14 3.14 0 0 1-3.24-3.28 3.58 3.58 0 0 1 3.67-3.67m-1.93 8.45h3.49c.93 0 1.21.21 1.21 1.18v16.62c0 1-.29 1.18-1.21 1.18h-3.49c-1 0-1.21-.22-1.21-1.18V21.12c0-1 .25-1.18 1.21-1.18m18.02-.43c7.7 0 10.7 4.68 10.7 9.92s-3 9.9-10.7 9.9-10.74-4.71-10.74-10 3-9.91 10.74-9.91m-4.46 9.95c0 3.21 1.46 4.82 4.46 4.82s4.46-1.6 4.46-4.82-1.46-4.85-4.46-4.85-4.46 1.64-4.46 4.85" fill="#fff"/></svg>