<svg xmlns="http://www.w3.org/2000/svg" width="48" height="42"><path fill="#66BF92" fill-rule="evenodd" d="M15.472 15.614V2.256L2 6.45v32.82l13.472-4.358V16.678l-2.21.805-.343-.94 2.553-.929zm26.563-3.712L41.5 17h-.168l-.295-5.073a1.5 1.5 0 1 1 .998-.025zM31.985 5.04L48 0v36.854L31.986 42l-15.887-5.146L0 42V5.04L16.099 0l15.887 5.04zM16.59 1.993v32.985l14.916 4.928V6.986L16.589 1.994zM32.622 6.92v32.985L46 35.41V2.707L32.622 6.921zm9.358 12.024l-2.331 1.888-.63-.778 2.332-1.888.63.778zm-3.315 3.485l-1.455 2.624-.875-.484 1.455-2.624.875.484zm-2.863 4.173l-1.805 2.396-.799-.602L35.003 26l.799.602zm-7.153.564l2.331 1.888-.629.778-2.331-1.888.629-.778zm-2.52-4.204l1.59 2.544-.848.53-1.59-2.544.848-.53zm-3.311-3.89l2.084 2.159-.72.694-2.084-2.158.72-.694zm-4.388-2.738l2.624 1.455-.484.875-2.624-1.455.484-.875zM7.933 18.708l2.696-1.315.438.899-2.696 1.315-.438-.899zm-3.835 3.524l2.084-2.158.72.694-2.084 2.158-.72-.694z"/></svg>