<svg xmlns="http://www.w3.org/2000/svg" width="45" height="32"><path fill="#66BF92" fill-rule="evenodd" d="M0 29.348v.978c0 .54.434.978.975.978h39.137a.974.974 0 0 0 .975-.978v-.978H0zM34.24 9.472a5.87 5.87 0 1 1 0 6.491v3.432a7.997 7.997 0 0 1-7.997 7.996H14.844a7.997 7.997 0 0 1-7.996-7.996V0h27.391v9.472zM8.808 7.826v11.61a5.998 5.998 0 0 0 6.009 5.999H26.37c3.319 0 6.009-2.694 6.009-5.999V7.826H8.809zm-.005-5.87V5.87h23.479V1.957H8.804zM39.13 16.63a3.913 3.913 0 1 0 0-7.826 3.913 3.913 0 0 0 0 7.826z"/></svg>