<svg xmlns="http://www.w3.org/2000/svg" width="26" height="21"><path fill="#66BF92" fill-rule="evenodd" d="M22.936 3.32A5.324 5.324 0 0 0 25.282.389a10.719 10.719 0 0 1-3.388 1.286A5.342 5.342 0 0 0 18.001 0c-2.946 0-5.334 2.374-5.334 5.301 0 .416.047.82.138 1.209A15.175 15.175 0 0 1 1.81.97a5.29 5.29 0 0 0 1.65 7.078 5.337 5.337 0 0 1-2.415-.663v.067c0 2.568 1.838 4.711 4.278 5.198a5.375 5.375 0 0 1-2.409.091 5.336 5.336 0 0 0 4.983 3.682 10.744 10.744 0 0 1-6.625 2.27c-.43 0-.855-.026-1.272-.075A15.165 15.165 0 0 0 8.177 21c9.811 0 15.177-8.078 15.177-15.084 0-.23-.006-.458-.016-.686A10.8 10.8 0 0 0 26 2.486c-.957.422-1.985.707-3.064.835z"/></svg>