<svg xmlns="http://www.w3.org/2000/svg" width="48" height="41"><path fill="#66BF92" fill-rule="evenodd" d="M47.96 11.331c-.01-.064 0-.129-.023-.19L43.806.597A.948.948 0 0 0 42.924 0H5.077a.947.947 0 0 0-.883.597L.064 11.141c-.024.061-.014.126-.024.19-.015.064-.04.125-.04.192v28.54c0 .517.424.937.946.937h46.108c.522 0 .946-.42.946-.937v-28.54c0-.067-.026-.128-.04-.192zm-21.1-9.457l2.38 9.6v10.83l-4.814-2.385a.966.966 0 0 0-.849 0l-4.817 2.386V11.417l2.376-9.543h5.724zm19.246 37.252H1.891V12.46h13.05c.523 0 .947-.42.947-.937 0-.006-.005-.013-.005-.02 0-.008.005-.016.005-.023a.942.942 0 0 0-.947-.937H2.33l3.395-8.67h13.46l-2.288 9.207a.838.838 0 0 0-.028.225V23.82c0 .325.17.626.45.797a.958.958 0 0 0 .92.041l5.765-2.854 5.761 2.854a.954.954 0 0 0 .921-.041.939.939 0 0 0 .45-.797V11.36a.94.94 0 0 0-.027-.223L28.81 1.874h13.466l3.396 8.669h-12.61a.94.94 0 0 0-.946.937c0 .007.003.015.004.022-.001.008-.004.015-.004.021a.94.94 0 0 0 .945.937h13.046v26.666z"/></svg>